<?xml version="1.0" encoding="UTF-8" ?>
<!DOCTYPE svg PUBLIC "-//W3C//DTD SVG 1.1//EN" "http://www.w3.org/Graphics/SVG/1.1/DTD/svg11.dtd">
<svg width="100pt" height="100pt" viewBox="0 0 177 106" version="1.1" xmlns="http://www.w3.org/2000/svg">
<g id="#59b7b4f7">
<path fill="#59b7b4" opacity="0.97" d=" M 97.45 0.00 L 115.86 0.00 C 116.60 0.94 117.58 1.47 118.78 1.61 C 122.94 2.59 126.98 4.04 130.86 5.83 C 126.04 4.16 121.28 2.23 116.21 1.43 L 114.74 2.57 C 114.98 1.98 115.48 0.81 115.73 0.22 C 110.10 0.62 104.46 0.67 98.82 0.57 C 96.23 2.41 92.82 2.20 89.98 3.48 C 84.15 6.05 79.17 10.23 74.72 14.72 C 67.71 21.72 64.38 32.36 66.65 42.06 C 65.66 39.12 64.50 36.12 64.61 32.96 C 64.85 25.14 68.73 17.72 74.57 12.59 C 81.16 6.70 89.09 1.42 98.16 0.82 L 97.45 0.00 Z" />
<path fill="#59b7b4" opacity="0.97" d=" M 53.19 26.93 C 55.80 16.92 61.93 7.59 70.77 2.05 C 61.87 9.69 55.07 20.22 53.16 31.91 C 52.46 35.76 52.94 39.65 52.91 43.53 C 52.74 43.77 52.40 44.26 52.23 44.50 C 52.25 38.64 51.47 32.63 53.19 26.93 Z" />
<path fill="#59b7b4" opacity="0.97" d=" M 80.11 23.11 C 87.16 15.37 97.48 10.47 108.00 10.41 C 113.31 10.66 118.96 12.05 123.02 15.67 C 108.49 10.42 90.36 14.21 80.46 26.46 C 76.58 30.90 75.18 37.70 77.96 43.06 C 79.01 45.47 81.20 47.04 82.92 48.93 C 78.67 46.36 74.38 42.36 74.41 37.00 C 74.74 31.93 76.85 26.99 80.11 23.11 Z" />
<path fill="#59b7b4" opacity="0.97" d=" M 46.45 19.94 C 46.97 18.74 47.75 17.66 48.90 17.01 C 48.92 18.65 47.43 19.58 46.90 21.00 C 41.61 33.57 43.64 48.34 50.66 59.83 C 51.06 60.39 51.85 61.50 52.25 62.05 C 56.73 67.53 62.38 72.19 69.03 74.75 C 77.97 77.37 88.33 75.60 95.43 69.40 C 97.16 67.75 98.91 65.93 99.63 63.59 C 100.32 61.40 100.34 59.09 100.38 56.83 C 101.33 59.84 100.79 63.26 98.96 65.83 C 94.92 71.87 88.42 76.67 81.01 77.21 C 71.06 77.85 61.45 73.31 54.09 66.90 C 41.56 55.34 37.78 34.82 46.45 19.94 Z" />
<path fill="#59b7b4" opacity="0.97" d=" M 96.98 21.01 C 108.42 17.32 121.63 20.44 130.48 28.48 C 132.87 30.82 135.20 33.26 137.08 36.03 C 137.68 36.94 138.29 37.84 138.87 38.76 C 137.82 37.56 136.85 36.28 135.99 34.94 C 130.71 28.71 123.75 23.95 115.90 21.60 C 106.89 18.36 96.35 20.90 89.40 27.38 C 86.61 29.87 83.74 33.07 83.97 37.09 C 84.37 40.89 87.20 43.72 89.02 46.90 C 83.89 44.06 81.63 37.58 83.19 32.07 C 86.13 26.80 91.17 22.70 96.98 21.01 Z" />
<path fill="#59b7b4" opacity="0.97" d=" M 92.29 30.40 C 101.03 29.58 110.28 31.27 117.39 36.64 C 124.44 41.88 128.35 50.40 129.64 58.92 C 130.71 68.76 127.32 78.61 121.98 86.78 C 118.00 92.61 113.64 98.58 107.21 101.89 C 118.16 93.83 126.47 81.60 128.11 67.93 C 128.70 64.35 128.47 60.70 127.58 57.19 C 126.82 53.37 125.69 49.50 123.36 46.32 L 123.17 46.11 C 119.69 41.27 115.42 36.86 110.03 34.16 C 104.62 31.26 98.38 30.51 92.33 30.60 L 92.29 30.40 Z" />
<path fill="#59b7b4" opacity="0.97" d=" M 101.26 40.48 C 102.34 40.68 104.40 39.57 104.73 41.32 C 108.53 42.65 112.15 44.82 114.52 48.14 C 115.03 48.19 116.07 48.28 116.59 48.33 L 116.52 48.69 C 116.00 49.80 115.62 50.95 115.46 52.17 C 115.17 51.54 114.57 50.29 114.27 49.66 C 114.05 49.30 113.60 48.57 113.38 48.20 C 111.12 45.45 108.20 43.33 104.96 41.87 C 103.62 41.72 102.44 41.08 101.26 40.48 Z" />
<path fill="#59b7b4" opacity="0.97" d=" M 39.78 43.50 C 39.88 43.50 40.07 43.50 40.16 43.50 C 39.76 53.65 45.03 63.01 51.65 70.33 C 54.30 73.08 56.93 76.10 60.57 77.56 C 62.47 79.15 64.80 80.03 67.05 81.01 C 77.91 84.03 90.04 80.86 98.36 73.36 C 99.88 71.95 101.23 70.38 102.75 68.97 C 99.48 75.25 93.75 80.10 87.08 82.44 C 80.78 83.90 74.09 83.56 67.92 81.65 C 65.63 81.01 63.63 79.40 61.19 79.36 C 58.02 76.63 54.24 74.69 51.33 71.65 C 43.72 64.46 38.94 54.08 39.78 43.50 Z" />
<path fill="#59b7b4" opacity="0.97" d=" M 142.09 45.62 C 142.60 45.79 143.11 45.95 143.62 46.11 L 143.26 47.55 C 147.95 57.53 148.01 68.96 146.56 79.69 L 146.24 79.74 C 147.34 70.81 147.04 61.73 144.99 52.96 C 144.22 50.44 143.15 48.03 142.09 45.62 Z" />
<path fill="#59b7b4" opacity="0.97" d=" M 52.85 46.85 C 53.00 46.63 53.29 46.19 53.43 45.98 C 54.38 47.21 54.93 48.61 55.10 50.18 C 53.63 50.10 52.79 48.17 52.85 46.85 Z" />
<path fill="#59b7b4" opacity="0.97" d=" M 69.30 50.38 C 69.76 50.29 70.68 50.11 71.13 50.02 C 72.61 52.08 74.78 53.42 76.83 54.84 L 77.19 55.10 C 74.86 54.39 72.90 52.91 71.34 51.05 C 70.87 50.92 69.93 50.65 69.46 50.52 L 69.30 50.38 Z" />
<path fill="#59b7b4" opacity="0.97" d=" M 117.54 62.41 C 117.27 58.98 116.97 55.52 117.36 52.08 C 119.74 57.85 120.80 64.28 119.30 70.42 C 117.00 77.60 112.97 84.30 107.39 89.42 C 100.16 96.08 90.67 100.18 80.88 100.98 C 75.94 101.58 70.99 100.80 66.07 100.42 C 71.76 100.45 77.48 101.04 83.12 99.94 C 92.16 98.90 100.86 94.78 107.25 88.27 C 113.42 81.18 117.84 71.96 117.54 62.41 Z" />
<path fill="#59b7b4" opacity="0.97" d=" M 55.13 53.37 C 56.09 53.77 57.05 54.17 58.01 54.56 C 58.43 56.17 59.52 57.43 60.43 58.78 C 60.24 59.01 59.85 59.46 59.66 59.69 C 57.98 57.71 56.47 55.59 55.13 53.37 Z" />
<path fill="#59b7b4" opacity="0.97" d=" M 30.19 58.09 C 34.30 65.24 39.11 72.01 44.81 77.98 C 38.21 72.92 33.20 65.81 30.19 58.09 Z" />
<path fill="#59b7b4" opacity="0.97" d=" M 60.24 61.58 C 60.75 60.90 61.40 60.38 62.17 60.00 L 63.03 60.18 C 63.97 60.84 64.44 61.74 64.43 62.87 C 62.95 62.93 61.67 61.87 60.24 61.58 Z" />
<path fill="#59b7b4" opacity="0.97" d=" M 109.21 61.78 C 109.29 61.30 109.47 60.34 109.55 59.86 C 109.67 63.26 109.88 66.80 108.55 70.02 C 104.95 80.42 95.37 87.91 84.92 90.66 C 71.61 94.01 57.06 89.34 47.15 80.12 C 49.79 81.69 52.33 83.42 55.12 84.70 C 63.55 88.86 73.34 90.09 82.57 88.41 C 92.28 86.07 101.47 80.51 106.96 72.01 C 108.77 68.94 108.95 65.25 109.21 61.78 Z" />
<path fill="#59b7b4" opacity="0.97" d=" M 66.15 62.85 C 69.55 65.41 73.61 67.46 77.99 67.22 C 81.10 67.29 83.93 65.87 86.92 65.25 C 80.58 69.13 72.39 68.33 66.15 64.67 C 66.15 64.21 66.15 63.30 66.15 62.85 Z" />
</g>
<g id="#040808fc">
<path fill="#040808" opacity="1.00" d=" M 52.91 43.53 C 55.59 43.17 58.90 42.60 60.90 44.96 C 60.90 45.39 60.92 46.24 60.93 46.67 C 58.76 45.34 55.54 43.55 53.43 45.98 C 53.29 46.19 53.00 46.63 52.85 46.85 C 52.24 48.03 52.54 49.40 52.44 50.67 C 55.33 50.80 57.89 52.33 60.40 53.63 C 62.52 55.06 62.21 57.78 62.17 60.00 C 61.40 60.38 60.75 60.90 60.24 61.58 C 58.10 63.52 54.72 63.18 52.25 62.05 C 51.85 61.50 51.06 60.39 50.66 59.83 L 50.77 58.53 C 53.06 60.71 57.22 62.91 59.66 59.69 C 59.85 59.46 60.24 59.01 60.43 58.78 L 60.63 58.55 C 60.91 56.95 60.74 54.77 58.74 54.45 L 58.01 54.56 C 57.05 54.17 56.09 53.77 55.13 53.37 C 53.15 52.62 50.64 51.46 50.61 48.98 C 50.24 47.26 51.26 45.80 52.23 44.50 C 52.40 44.26 52.74 43.77 52.91 43.53 Z" />
<path fill="#040808" opacity="1.00" d=" M 94.11 42.73 C 94.46 42.90 95.17 43.24 95.52 43.41 C 95.51 49.75 95.67 56.12 95.43 62.45 C 95.15 62.63 94.60 62.99 94.32 63.16 C 94.22 62.45 94.02 61.01 93.92 60.29 C 92.21 61.64 90.34 63.22 87.98 62.91 C 84.24 62.98 80.92 59.77 80.67 56.10 C 80.68 52.51 83.25 48.61 87.13 48.51 C 89.74 47.93 92.03 49.44 93.94 51.03 C 93.95 48.27 93.99 45.50 94.11 42.73 M 86.10 50.28 C 83.90 51.20 82.14 53.52 82.44 55.99 C 82.44 59.25 85.76 61.84 88.92 61.33 C 92.72 61.16 95.26 56.42 93.37 53.13 C 92.19 50.43 88.80 49.23 86.10 50.28 Z" />
<path fill="#040808" opacity="1.00" d=" M 123.36 46.32 C 125.69 49.50 126.82 53.37 127.58 57.19 C 125.22 58.45 128.20 62.53 125.20 63.08 C 124.84 59.40 125.37 55.66 124.71 52.02 C 123.68 48.61 118.74 49.23 117.36 52.08 C 116.97 55.52 117.27 58.98 117.54 62.41 C 117.02 62.50 116.00 62.66 115.48 62.75 C 115.62 59.22 115.49 55.69 115.46 52.17 C 115.62 50.95 116.00 49.80 116.52 48.69 L 116.74 48.16 L 117.25 50.20 C 118.96 49.25 120.67 47.93 122.78 48.44 C 122.93 47.91 123.22 46.85 123.36 46.32 Z" />
<path fill="#040808" opacity="1.00" d=" M 69.57 48.68 C 73.53 47.51 78.26 49.86 79.13 54.01 C 80.40 58.37 76.50 63.13 72.00 62.90 C 69.65 63.17 67.71 61.66 66.14 60.12 C 66.14 60.80 66.15 62.17 66.15 62.85 C 66.15 63.30 66.15 64.21 66.15 64.67 C 66.10 65.90 66.34 67.87 64.54 67.81 C 64.50 66.16 64.46 64.51 64.43 62.87 C 64.44 61.74 63.97 60.84 63.03 60.18 L 64.26 60.35 C 65.06 56.59 64.03 52.65 64.74 48.87 L 65.90 48.31 C 65.97 49.00 66.11 50.37 66.18 51.05 C 67.29 50.23 68.36 49.34 69.57 48.68 M 69.30 50.38 L 69.46 50.52 L 68.86 50.35 C 67.91 51.84 66.15 53.11 66.16 55.04 C 65.66 58.36 68.63 61.61 71.99 61.37 C 75.03 61.54 78.61 58.16 77.19 55.10 L 76.83 54.84 C 78.12 51.75 73.74 49.57 71.13 50.02 C 70.68 50.11 69.76 50.29 69.30 50.38 Z" />
<path fill="#040808" opacity="1.00" d=" M 98.69 49.40 C 99.03 49.09 99.71 48.49 100.05 48.18 C 100.29 51.06 100.33 53.94 100.38 56.83 C 100.34 59.09 100.32 61.40 99.63 63.59 C 98.18 62.45 98.75 60.55 98.62 59.00 C 98.72 55.80 98.52 52.59 98.69 49.40 Z" />
<path fill="#040808" opacity="1.00" d=" M 101.85 48.04 C 105.21 50.84 105.21 55.91 108.25 58.94 C 109.85 55.31 111.44 51.67 113.38 48.20 C 113.60 48.57 114.05 49.30 114.27 49.66 C 112.79 53.10 110.81 56.32 109.55 59.86 C 109.47 60.34 109.29 61.30 109.21 61.78 C 108.75 61.73 107.83 61.63 107.37 61.58 L 106.65 60.27 C 106.27 59.47 105.90 58.67 105.53 57.87 C 104.39 54.58 101.51 51.64 101.85 48.04 Z" />
</g>
<g id="#060c0cba">
<path fill="#060c0c" opacity="0.73" d=" M 98.90 43.48 C 100.27 43.12 100.75 43.62 100.33 45.00 C 98.90 45.41 98.42 44.90 98.90 43.48 Z" />
</g>
<g id="#17302f41">
<path fill="#17302f" opacity="0.25" d=" M 105.53 57.87 C 105.90 58.67 106.27 59.47 106.65 60.27 C 105.49 62.27 105.10 64.57 104.76 66.83 C 104.35 67.05 103.54 67.51 103.14 67.73 C 104.13 64.49 105.74 61.36 105.53 57.87 Z" />
</g>
</svg>
